<?xml version="1.0" encoding="UTF-8" standalone="no"?>
<svg width="46px" height="45px" viewBox="0 0 46 45" version="1.1" xmlns="http://www.w3.org/2000/svg" xmlns:xlink="http://www.w3.org/1999/xlink" xmlns:sketch="http://www.bohemiancoding.com/sketch/ns">
    <!-- Generator: Sketch 3.3.3 (12081) - http://www.bohemiancoding.com/sketch -->
    <title>Bird</title>
    <desc>Created with Sketch.</desc>
    <defs></defs>
    <g id="Page-1" stroke="none" stroke-width="1" fill="none" fill-rule="evenodd" sketch:type="MSPage">
        <g id="Desktop-Design" sketch:type="MSArtboardGroup" transform="translate(-18.000000, -14.000000)">
            <g id="NAV" sketch:type="MSLayerGroup">
                <g id="Bird" transform="translate(18.023429, 13.453797)" sketch:type="MSShapeGroup">
                    <path d="M32.0188354,37.4108942 C32.226215,37.2567421 32.3167079,37.3262985 32.4618736,37.3018598 C32.5052348,37.2952801 32.6079819,37.2689615 32.6296625,37.2473426 C32.66454,37.3131392 32.6683105,37.453192 32.7474918,37.5594066 C32.801222,37.6317829 32.8370421,37.7323578 32.878518,37.7831152 C32.9680683,37.8921496 33.1170045,37.9682857 33.2310633,38.0707404 C33.3517205,38.1797749 33.5100831,38.2634306 33.5986907,38.3564858 C33.7070937,38.47022 33.7485696,38.6375314 33.8381198,38.7587852 C33.9107027,38.8565402 34.0304173,38.9091775 34.1011148,38.9956531 C34.2604201,39.1902231 34.3461998,39.3462551 34.5168166,39.485368 C34.5922274,39.5474049 34.7006303,39.564324 34.7835821,39.6404601 C34.8269433,39.6789981 34.8288286,39.7532543 34.8731324,39.8049517 C34.9089525,39.8463096 34.9815354,39.8754481 35.0201834,39.9130461 C35.1040778,39.9967019 35.1813739,40.1010365 35.255842,40.1856322 C35.3953519,40.345424 35.5923625,40.6217699 35.7441266,40.7298643 C35.8195374,40.7834416 35.9345387,40.7966009 36.0222037,40.8501782 C36.1409757,40.9234944 36.1918779,41.0268891 36.2993383,41.068247 C36.2993383,40.7420837 36.5519643,40.6274096 36.8206151,40.7477234 C37.0213962,40.8379588 37.1118891,41.0503879 37.2928749,41.2938355 C37.3993926,41.4376481 37.524763,41.5316433 37.5907474,41.654777 C37.8905051,42.2168682 37.9932523,42.9707096 37.8169796,43.4867432 C37.7264867,43.7489898 37.5153366,44.0939521 37.2749649,44.2161459 C37.0996349,43.8928024 37.3466051,43.6333757 37.3805399,43.2921732 C37.4003352,43.0910235 37.3786546,42.885174 37.310785,42.7178626 C37.2457432,42.5590107 37.1005775,42.4433966 37.0468473,42.2554062 C37.0081993,42.122873 37.0251667,41.9818802 36.9865187,41.8587465 C36.9309033,41.6754559 36.8121314,41.5241237 36.7065563,41.3972302 C36.6085223,41.2806761 36.4982341,41.0992654 36.3219615,41.1143047 C36.3766343,41.3069948 36.4548729,41.4855856 36.5218,41.6839155 C36.5915549,41.8916449 36.6254898,42.103134 36.6829905,42.3249627 C36.7631144,42.6389066 36.9120506,42.8814142 36.9412723,43.2921732 C36.9761498,43.7659089 36.9535265,44.3204805 36.7979919,44.6118656 C36.7527454,44.6955214 36.5481937,44.9652875 36.4379055,44.9248696 C36.2814282,44.8665926 36.4331923,44.3646583 36.3898312,44.1691483 C36.3304452,43.9059618 36.1645415,43.8730634 36.1183525,43.6587544 C36.083475,43.4980226 36.1287214,43.2790139 36.111754,43.0759842 C36.073106,42.5900291 35.9307682,42.143552 35.7733483,41.7957698 C35.6875685,41.6058995 35.5801082,41.360572 35.3633023,41.3380132 C35.2869489,41.79201 35.6357236,42.1783302 35.6696585,42.6219875 C35.6762569,42.7056432 35.6470353,42.787419 35.6442074,42.885174 C35.634781,43.2320163 35.6706011,43.5619394 35.6234694,43.8298257 C35.5810508,44.0695134 35.4245735,44.2396447 35.2860063,44.3994365 C35.2181366,44.4765126 35.1625212,44.5921266 35.0550609,44.5958865 C34.874075,44.4041363 35.0795693,44.2039265 35.041864,43.9651787 C35.0201834,43.8298257 34.9080099,43.7301908 34.8552224,43.5873181 C34.7204256,43.2207368 34.8382549,42.7178626 34.7666147,42.2375472 C34.7204256,41.9292429 34.6431296,41.6397378 34.5469809,41.4273086 C34.5102182,41.3445929 34.41784,41.2336785 34.4112416,41.1716417 C34.3980447,41.0409884 34.4970213,40.8849564 34.6044816,40.834199 C34.7411636,40.7721622 34.894813,40.8633375 35.0022733,40.774982 C34.9664532,40.5663127 34.7289093,40.5315345 34.6223917,40.4102807 C34.5677189,40.3473039 34.5469809,40.2561286 34.4913655,40.1865721 C34.4159547,40.091637 34.2839859,40.0296002 34.2104604,39.9365449 C34.0982869,39.7946122 34.0172204,39.6573792 33.8861942,39.5145065 C33.7683649,39.3857331 33.6891836,39.2062023 33.5628706,39.0924681 C33.4695498,39.0078725 33.3083593,39.0003529 33.211268,38.9176371 C33.092496,38.8170622 33.0283969,38.645991 32.9247071,38.5219173 C32.8342142,38.4157028 32.7013028,38.3160679 32.5994982,38.1976339 C32.4948658,38.0763801 32.3874055,37.922228 32.2846583,37.8385723 C32.2215018,37.7878149 32.1093283,37.7746556 32.0065812,37.7182585 C31.8849814,37.6515219 31.8425628,37.5641064 31.7501846,37.5086492 C31.7501846,37.5086492 31.8698992,37.5208686 32.0188354,37.4108942" id="Fill-32" fill="#000000"></path>
                    <path d="M21.0493989,36.5874963 C21.1747693,36.5536581 21.2548932,36.6739719 21.4160837,36.6467133 C21.4189116,36.6457734 21.4207969,36.6448334 21.4236248,36.6438935 C21.3708373,36.7134499 21.3312466,36.7886461 21.3255908,36.8723018 C21.3189924,36.984156 21.3991163,37.0743914 21.4123132,37.2332433 C21.4217395,37.3469775 21.3717799,37.4672913 21.3849768,37.5932449 C21.4000589,37.7332977 21.4575596,37.8413922 21.4764123,37.9861448 C21.5310851,38.4100631 21.5678478,38.8349213 21.6300617,39.2278212 C21.6489144,39.3434353 21.7007593,39.4496499 21.7120709,39.5558644 C21.7309236,39.7335153 21.6621113,39.9177459 21.6903903,40.0624985 C21.7224399,40.2298099 21.8977699,40.4347194 22.0203124,40.4187403 C22.1692486,40.3990013 22.2088392,40.2175905 22.3738003,40.1715329 C22.5453597,40.1226554 22.779133,40.150854 22.8997903,40.2063111 C23.3975012,40.4384792 23.7472186,41.8314879 23.6152498,42.4847545 C23.5850855,42.631387 23.4644283,42.7498209 23.4012718,42.905853 C23.3409432,43.0562453 23.3249184,43.2141572 23.2674177,43.314732 C23.2372534,43.3683093 23.0091358,43.6625142 22.8894213,43.6145767 C22.8149532,43.5835583 22.7961005,43.4284662 22.8149532,43.3335311 C22.869626,43.0543654 23.1137683,42.8372365 23.0779482,42.4828746 C23.0430707,42.1379123 22.877167,41.9405224 22.8366337,41.7403126 C22.8092973,41.6058995 22.8262648,41.458327 22.7932726,41.341773 C22.7593377,41.225219 22.487859,40.6678275 22.322898,40.8116401 C22.2418314,40.8821365 22.3323243,41.1622422 22.3785134,41.2900757 C22.4444978,41.4714864 22.5246218,41.5946201 22.5566713,41.7177538 C22.8394616,42.7977585 22.6820417,43.7358305 22.3483491,44.3439793 C22.2663399,44.4934317 22.1569943,44.6616831 21.982607,44.72278 C21.8167033,44.4003765 22.1013789,44.2424645 22.0778131,43.9463797 C22.0627309,43.7612092 21.9279342,43.589198 21.905311,43.3391708 C21.8902288,43.1746792 21.9317047,42.9998481 21.9241636,42.8174975 C21.9062536,42.3541012 21.8412118,41.8164487 21.6668245,41.4282486 C21.5508804,41.1688219 21.4339938,41.2872558 21.456617,41.5410428 C21.4820681,41.8352478 21.6140369,42.0824551 21.6234633,42.3268426 C21.6432586,42.8635551 21.348214,43.5478401 20.793945,43.6343157 C20.6911978,43.35421 20.891979,43.2414158 20.9268565,42.9989082 C20.9749308,42.6614655 20.8071419,42.5543109 20.6968537,42.221568 C20.5856228,41.889765 20.7147637,41.6030796 20.6242708,41.3079347 C20.5818523,41.1697618 20.4300881,41.0409884 20.4168912,40.9009356 C20.4008665,40.7279844 20.6063608,40.443179 20.7505838,40.4131005 C20.8439046,40.3943015 21.0145214,40.4967563 21.1078423,40.4084008 C21.1917367,40.3294448 21.1078423,40.1386346 21.0984159,40.0211406 C21.0871043,39.8829677 21.0993585,39.7429148 21.0710795,39.6197811 C21.0456284,39.5135666 20.969275,39.368814 20.9551355,39.2795186 C20.9334549,39.1498052 20.9758734,39.0219717 20.9607913,38.8894385 C20.9466518,38.7606651 20.8872658,38.6318917 20.8702984,38.4974786 C20.8552162,38.3799846 20.88161,38.2493313 20.8655852,38.1412368 C20.8505031,38.0434818 20.7958303,37.9494866 20.7722644,37.8470319 C20.6968537,37.5142889 20.6563204,37.1430079 20.5809096,36.7886461 C20.551688,36.6504731 20.4960725,36.517 20.4517687,36.378827 C20.5809096,36.4502634 20.7194769,36.5282794 20.755297,36.555538 C20.8269372,36.6081753 20.9249712,36.6203947 21.0493989,36.5874963" id="Fill-33" fill="#000000"></path>
                    <path d="M0.722430701,31.1686737 C0.770505055,31.3670036 1.35870892,31.3754631 1.63395817,31.3895624 C2.38240988,31.4271605 2.98946643,31.4121212 3.74168869,31.4487794 C4.77575862,31.4985968 5.85507501,31.5220956 6.94947355,31.4732181 C7.69792527,31.4393798 8.436008,31.3811028 9.16560703,31.3858026 C10.2958257,31.3933222 11.4326428,31.1667938 12.5091312,31.2288306 C12.8711029,31.2495096 13.2321318,31.2090916 13.5827918,31.2307105 C14.2850545,31.2730084 14.961866,31.2711285 15.5953163,31.416821 C15.7527362,31.4534791 15.9026151,31.494837 16.0506087,31.5277353 C16.3918423,31.6019915 16.6501242,31.6292501 16.9489393,31.7664831 C17.0818507,31.82758 17.2317296,31.8764575 17.3486163,31.9347345 C17.5446842,32.0315495 17.7511212,32.1998009 17.9764108,32.3276344 C18.0848137,32.3887313 18.1913314,32.4564078 18.2987917,32.5222044 C18.4062521,32.588941 18.5287945,32.6199594 18.6315417,32.6838762 C18.8662576,32.8286287 19.1726138,33.117194 19.314009,33.3286831 C19.3997887,33.4574566 19.4667158,33.6341675 19.5628645,33.7939593 C19.7447929,34.0966238 19.9615988,34.309053 20.0520917,34.7752691 C20.0662312,34.8485854 20.0549196,34.9266014 20.0690591,34.9999176 C20.1077072,35.2020073 20.2217659,35.3975173 20.2754961,35.618406 C20.3301689,35.8421145 20.3678743,36.0874419 20.4282029,36.3092706 C20.4348013,36.3327694 20.4442276,36.3553282 20.4517687,36.378827 C20.5809096,36.4502634 20.7194769,36.5282794 20.755297,36.555538 C20.8269372,36.6081753 20.9249712,36.6203947 21.0493989,36.5874963 C21.1747693,36.5536581 21.2548932,36.6739719 21.4160837,36.6467133 C21.4189116,36.6457734 21.4207969,36.6448334 21.4236248,36.6438935 C21.6545702,36.3431089 22.2682252,36.1786173 22.7659362,36.1710977 C23.0930303,36.1663979 23.4304934,36.1231601 23.6623815,36.183317 C23.9348028,36.2547534 24.2015684,36.4070256 24.4909571,36.4982009 C24.7690343,36.5856164 25.0414556,36.7087501 25.3157622,36.7971056 C25.605151,36.8901609 25.9313025,36.8929807 26.2499129,36.9493778 C26.4073329,36.9775764 26.5581544,37.0085948 26.7165169,37.0255139 C26.8777074,37.043373 27.0002499,37.1035299 27.1567272,37.1392481 C27.4687392,37.2088045 27.8759573,37.2088045 28.28129,37.2633218 C28.6574012,37.3131392 29.0533076,37.3685964 29.392656,37.4052545 C29.6971269,37.4390928 30.1495914,37.4306332 30.5850885,37.4390928 C30.9951345,37.4466124 31.5022718,37.3911552 31.7501846,37.5086492 C31.7501846,37.5086492 31.7633815,37.5161688 31.7841195,37.5246284 C31.7841195,37.5246284 32.576875,37.3892753 32.6296625,37.2473426 C32.6569989,37.200345 32.723926,37.1542873 32.860608,37.0997701 C33.1867595,36.9691168 33.5289358,36.7745468 33.8315214,36.6307341 C34.3330029,36.3910464 34.7147698,36.1898967 35.0823972,35.9737078 C35.9100303,35.4868127 36.7169253,35.0816934 37.4399259,34.5515606 C37.9555469,34.1736999 38.45043,33.7178232 38.9057224,33.2628865 C39.0593718,33.1087344 39.2299886,32.9677416 39.3760969,32.8192292 C39.674912,32.5156248 39.9605303,32.1913414 40.2433206,31.8792773 C40.5364799,31.5568738 40.8013602,31.2288306 41.0407893,30.9007874 C41.1699302,30.7231365 41.3311207,30.5849636 41.4555484,30.4167122 C41.7062892,30.0792695 41.9438331,29.7286674 42.1587537,29.3545666 C42.2633861,29.1731558 42.3369116,28.9757659 42.4462572,28.7764961 C43.0570843,27.6645331 43.5161472,26.4237966 43.823446,25.0514668 C43.8743483,24.8268183 43.90357,24.5946502 43.9648412,24.3653019 C44.1448844,23.6922964 44.1778766,22.9798128 44.2240657,22.1855535 C44.2523447,21.6845591 44.2975912,21.1487866 44.2702548,20.6543719 C44.1807045,19.0226154 43.8875452,17.1257925 43.6330339,15.4291793 C43.5670495,14.9845821 43.4661876,14.5390449 43.4294249,14.0643692 C43.3973753,13.6667695 43.3888916,13.2099529 43.3794652,12.757836 C43.3738094,12.4908897 43.3483583,12.1741259 43.4134001,12.0068145 C43.4313101,11.9607568 43.4671302,11.917519 43.5133193,11.8761612 C43.4482776,11.8451428 43.2333569,9.36084991 43.338932,9.37588914 C43.3049971,9.31385231 43.2710623,9.25275544 43.2380701,9.21045761 C43.0495432,8.97076988 42.8365078,8.81661777 42.6263004,8.60418864 C42.5244958,8.50079393 42.4349456,8.37484038 42.335969,8.29024471 C42.1747785,8.15489163 41.9881369,8.07029596 41.8260038,7.92836323 C41.5253034,7.66611665 41.214234,7.34559306 40.8871399,7.09556585 C40.7212362,6.9677324 40.5345946,6.86715755 40.3781173,6.73368438 C40.0943844,6.49117679 39.8888901,6.17723286 39.607985,5.93942503 C39.3336784,5.70725691 39.0169532,5.52020649 38.7303924,5.29179818 C38.1648117,4.84156122 37.5662389,4.43268215 36.9742645,3.99654447 C36.3992575,3.57168622 35.8148242,3.12050931 35.245473,2.66463265 C35.1003073,2.54807861 34.9579695,2.43434443 34.807148,2.3412892 C34.5017345,2.15141891 34.1614434,1.98692733 33.8880795,1.74817955 C33.7504548,1.62786571 33.6429945,1.49627245 33.5053699,1.36655909 C33.2649981,1.14003068 32.9463877,0.991518282 32.6871632,0.79130853 C32.5928998,0.717992283 32.5401123,0.556320557 32.3921187,0.560080365 C32.3280195,0.810107568 32.5401123,1.02723645 32.6287199,1.27068399 C32.6739664,1.39287774 32.7126144,1.52823081 32.7682298,1.65512432 C32.8247879,1.78295777 32.8540095,1.90891133 32.9067971,2.04050459 C32.986921,2.23601458 33.1462262,2.45690328 33.2555718,2.73418909 C33.3111872,2.87612182 33.5836086,3.38463579 33.3668026,3.47957093 C33.1528246,3.57450608 32.976552,3.32353892 32.8445832,3.24928272 C32.7079012,3.17314662 32.548596,3.11110979 32.4062582,3.03967345 C32.2620351,2.9663572 32.1093283,2.8902211 31.9434247,2.88176153 C31.8623581,3.10077032 31.9999828,3.26714181 32.0697377,3.39779512 C32.2309282,3.70045963 32.3440443,3.986205 32.4948658,4.38850441 C32.5608502,4.56427542 32.6428594,4.79644353 32.5599076,4.93085665 C32.5090053,5.01169252 32.2422398,5.03895112 32.2017065,5.14610564 C32.1762554,5.21284222 32.2535514,5.38485342 32.2695762,5.49294788 C32.4364225,6.60491097 31.9679332,7.31269474 31.5107555,8.02235842 C31.3721882,8.2376074 31.2421047,8.45943605 31.1025948,8.66716541 C30.9611996,8.87959454 30.8047223,9.09108372 30.6953767,9.31197241 C30.5775474,9.54978024 30.4983662,9.79792754 30.3795942,10.0244559 C30.2504533,10.2679035 30.0572133,10.4775128 29.9129902,10.7106208 C29.7659392,10.9456088 29.6433968,11.1805968 29.5170837,11.4343838 C29.3954839,11.6778313 29.2078997,11.8921403 29.0504797,12.1205487 C28.8911745,12.3517768 28.7695747,12.5989842 28.6366632,12.8311523 C28.554654,12.973085 28.4226852,13.1056182 28.3255939,13.2503708 C28.2275599,13.3960634 28.0937058,13.5248368 28.0135819,13.6695894 C27.9014084,13.8735589 27.8410798,14.0841082 27.7157094,14.2814981 C27.3603362,14.8398295 26.8409447,15.2806669 26.4356119,15.8352385 C26.0510171,16.3606716 25.4552721,16.7733105 24.9905534,17.2667853 C24.7501816,17.5224522 24.5484578,17.7489806 24.2882907,18.0046475 C24.0516895,18.2368156 23.7594728,18.4558244 23.4964778,18.6908124 C23.1448752,19.0028764 22.7913873,19.3187002 22.4303583,19.6119652 C22.0636735,19.90899 21.6819066,20.1984952 21.3105087,20.4927001 C20.9268564,20.7953646 20.520581,21.0369323 20.1143056,21.3029387 C18.4703512,22.3791836 16.9244308,23.5663428 15.3162965,24.5645717 C14.4839503,25.0815453 13.5884476,25.5684403 12.6524117,25.9998783 C12.1905208,26.2132473 11.7267447,26.4519951 11.2752228,26.6916829 C10.8246436,26.9313706 10.3787775,27.1860975 9.93291143,27.3947669 C9.80282788,27.4558637 9.66049009,27.4821824 9.53134918,27.5357597 C9.20991085,27.6701728 8.83191445,27.8581631 8.48313972,28.0329942 C8.24559585,28.1523681 8.00805199,28.2379037 7.74882753,28.3375386 C7.24357549,28.5302288 6.65819952,28.6467828 6.09733205,28.8263136 C5.52703824,29.0086643 5.12924652,29.1609365 4.462804,29.3132087 C4.14607884,29.385585 3.76902508,29.4222431 3.65402369,29.5641758 C3.58803928,29.6450117 3.63705627,29.7803648 3.55410444,29.8706001 C3.4570131,29.9758748 3.10069729,30.0444912 2.89143246,30.1159276 C2.44273848,30.2663199 2.03552042,30.4439708 1.56514586,30.6047026 C1.32948725,30.6864784 1.04763957,30.7221966 0.884563818,30.8359307 C0.78652984,30.9045472 0.698864841,31.0690388 0.722430701,31.1686737 L0.722430701,31.1686737 Z M38.5230128,9.44262572 C38.7039986,9.44826544 38.9434278,9.52158168 39.053716,9.62309649 C39.2130212,9.76784908 39.3374489,10.1739083 39.2988009,10.4953718 C39.2582676,10.8337545 38.8453938,11.2219547 38.4796516,11.2172549 C38.2213698,11.214435 37.8452587,10.9108306 37.7048062,10.6034663 C37.4041058,9.94549998 37.8471439,9.42194678 38.5230128,9.44262572 L38.5230128,9.44262572 Z" id="Fill-34" fill="#D72537"></path>
                    <path d="M42.480192,11.4842012 C42.2435908,11.4569426 42.0126454,11.487961 41.964571,11.3018506 C41.9202672,11.1298394 42.1314173,10.7886368 42.2219102,10.6307249 C42.4321177,10.2660236 42.567857,10.0977722 42.6847437,9.70205245 C42.7516707,9.47740394 42.7544986,9.34487073 43.0212642,9.34393078 C43.1287245,9.34299082 43.2333569,9.36084991 43.338932,9.37588914 C43.3888916,9.46518457 43.4388512,9.55541995 43.4906961,9.59489793 C43.6471734,9.71239192 44.0232845,9.67291394 44.2900501,9.71897158 C44.5568156,9.76408927 44.8462044,9.85244475 45.0488708,9.89756244 C45.2298566,9.93704042 45.8340852,9.9802782 45.8585937,10.198347 C45.8689627,10.2904623 45.7087149,10.414536 45.6238778,10.4765728 C45.2977263,10.7172005 44.9498942,10.9174102 44.6633333,11.1232597 C44.4870607,11.2492133 44.2457463,11.4221644 44.0289403,11.5584574 C43.8771762,11.6533926 43.6490587,11.7558473 43.5133193,11.8761612 C43.4482776,11.8451428 43.3851211,11.8103645 43.3219645,11.781226 C43.0778222,11.6693718 42.7544986,11.5170995 42.480192,11.4842012" id="Fill-35" fill="#000000"></path>
                </g>
            </g>
        </g>
    </g>
</svg>